- 
http://www.Speed.Cd 
       
http://www.Speed.Cd      fast  and The Hottest Private Tracker on the net

(((--Submit for invite!!--)))

Please Seed back to make the speed Faster!!!

------------------nfo--------------------------
-Encoded By .......:UnKnOwN                                                   
Runtime ..........:1:44                                                      
IMDb URL .........:http://www.imdb.com/title/tt1386925/                     
Language .........:English                                                  
File Size ........:1.37gb                                                   
Release Date ......... 2011                                                 
Source       ......... Thanks Bud                                           
File Type    ......... Single AVI                                           
PS3 Compatible ....... Sure why not                                         
Genre        ......... Horror/Sci fi/Short                                  
                                                                            
                                                                            
Video                                                                       
 ID                               : 0                                       
 Format                           : MPEG-4 Visual                           
 Format profile                   : Advanced Simple@L5                       
 Format settings, BVOP            : Yes                                      
 Format settings, QPel            : No                                       
 Format settings, GMC             : No warppoints                            
 Format settings, Matrix          : Custom                                   
 Codec ID                         : XVID                                     
 Codec ID/Hint                    : XviD                                     
 Duration                         : 1h 44mn                                  
 Bit rate                         : 1590Kbps                                 
 Width                            : 680pixels                                
 Height                           : 362pixels                                
 Display aspect ratio             : 16:9                                     
 Frame rate                       : 23.997fps                                
 Color space                      : YUV                                      
 Chroma subsampling               : 4:2:0                                    
 Bit depth                        : 8 bits                                   
 Scan type                        : Progressive                              
 Bits/(Pixel*Frame)               : 0.234                                    
 Stream size                      : 892 MiB (86%)                            
 Writing library                  : XviD 1.2.1 (UTC 2008-12-04)             
                                                                            
                                                                            
Audio                                                                        
ID                               : 1                                         
Format                           : AC3                                       
Format/Info                      : Version 1                                 
Mode extension                   : MP3                                       
Codec ID                         : 2000                                      
Duration                         : 1h 44mn                                   
Bit rate mode                    : Constant                                  
Bit rate                         : 384Kbps                                   
Channel(s)                       : 6channels                                 
Channel positions                : Front: L  R                               
Sampling rate                    : 48.0 KHz                                  
Bit depth                        : 16 bits                                   
Stream size                      : 302 MiB                                   
Alignment                        : Aligned on interleaves                    
Interleave, duration             : 42 ms (1.00 video frame)                  
Interleave, preload duration     : 512 ms                                   
                                                                            
                                                                            
                                                                            
                                                                             
                                                                            
                                                                            
                                                                            
                                SYSPNOSIS                                   
An American mercenary, the sole survivor of a plane crash, has to run the . 
gauntlet across Africa, battling with the living dead. Joining forces with  
a local military man, desperately searching for his son amongst the chaos,    
they fight together to survive, in the first Zombie Road-Movie set against  
                 the stunning backdrop of Africa